# Blender 3.4.1
# www.blender.org
mtllib scene5.mtl
o Emerald
v -3.500000 -0.000000 -5.938680
v -2.776393 0.552781 -5.412955
v -3.776388 0.552778 -5.088031
v -4.394426 0.552784 -5.938680
v -3.776388 0.552780 -6.789329
v -2.776393 0.552781 -6.464405
v -3.223612 1.447218 -5.088030
v -4.223607 1.447219 -5.412954
v -4.223607 1.447219 -6.464405
v -3.223612 1.447220 -6.789329
v -2.605574 1.447216 -5.938680
v -3.500000 2.000000 -5.938680
v -3.662456 0.149346 -5.438684
v -3.074677 0.149346 -5.629669
v -3.237131 0.474260 -5.129668
v -2.649352 0.474264 -5.938680
v -3.074677 0.149346 -6.247691
v -4.025730 0.149348 -5.938680
v -4.188190 0.474264 -5.438683
v -3.662456 0.149346 -6.438675
v -4.188190 0.474264 -6.438677
v -3.237131 0.474262 -6.747692
v -2.548942 1.000000 -5.629666
v -2.548942 1.000000 -6.247692
v -3.500000 0.999998 -4.938680
v -2.912214 0.999998 -5.129663
v -4.451058 1.000000 -5.629666
v -4.087786 0.999998 -5.129663
v -4.087786 1.000000 -6.747696
v -4.451058 1.000000 -6.247692
v -2.912214 1.000000 -6.747696
v -3.500000 1.000000 -6.938680
v -2.811810 1.525735 -5.438683
v -3.762869 1.525736 -5.129667
v -4.350648 1.525736 -5.938680
v -3.762869 1.525738 -6.747692
v -2.811810 1.525736 -6.438676
v -3.337544 1.850654 -5.438684
v -2.974270 1.850652 -5.938680
v -3.925323 1.850654 -5.629668
v -3.925323 1.850654 -6.247690
v -3.337544 1.850654 -6.438674
vn 0.1024 -0.9435 0.3151
vn 0.7002 -0.6617 0.2680
vn -0.2680 -0.9435 0.1947
vn -0.2680 -0.9435 -0.1947
vn 0.1024 -0.9435 -0.3151
vn 0.9050 -0.3304 0.2680
vn 0.0247 -0.3304 0.9435
vn -0.8897 -0.3304 0.3151
vn -0.5746 -0.3304 -0.7488
vn 0.5346 -0.3304 -0.7779
vn 0.8026 -0.1256 0.5831
vn -0.3066 -0.1256 0.9435
vn -0.9921 -0.1256 -0.0000
vn -0.3066 -0.1256 -0.9435
vn 0.8026 -0.1256 -0.5831
vn 0.4089 0.6617 0.6284
vn -0.4713 0.6617 0.5831
vn -0.7002 0.6617 -0.2680
vn 0.0385 0.6617 -0.7488
vn 0.7240 0.6617 -0.1947
vn 0.2680 0.9435 -0.1947
vn 0.4911 0.7947 -0.3568
vn 0.4089 0.6617 -0.6284
vn -0.1024 0.9435 -0.3151
vn -0.1876 0.7947 -0.5773
vn -0.4713 0.6617 -0.5831
vn -0.3313 0.9435 -0.0000
vn -0.6071 0.7947 -0.0000
vn -0.7002 0.6617 0.2680
vn -0.1024 0.9435 0.3151
vn -0.1876 0.7947 0.5773
vn 0.0385 0.6617 0.7488
vn 0.2680 0.9435 0.1947
vn 0.4911 0.7947 0.3568
vn 0.7240 0.6617 0.1947
vn 0.8897 0.3304 -0.3151
vn 0.7947 0.1876 -0.5773
vn 0.5746 0.3304 -0.7488
vn -0.0247 0.3304 -0.9435
vn -0.3035 0.1876 -0.9342
vn -0.5346 0.3304 -0.7779
vn -0.9050 0.3304 -0.2680
vn -0.9822 0.1876 -0.0000
vn -0.9050 0.3304 0.2680
vn -0.5346 0.3304 0.7779
vn -0.3035 0.1876 0.9342
vn -0.0247 0.3304 0.9435
vn 0.5746 0.3304 0.7488
vn 0.7947 0.1876 0.5773
vn 0.8897 0.3304 0.3151
vn 0.3066 0.1256 -0.9435
vn 0.3035 -0.1876 -0.9342
vn 0.0247 -0.3304 -0.9435
vn -0.8026 0.1256 -0.5831
vn -0.7947 -0.1876 -0.5773
vn -0.8897 -0.3304 -0.3151
vn -0.8026 0.1256 0.5831
vn -0.7947 -0.1876 0.5773
vn -0.5746 -0.3304 0.7488
vn 0.3066 0.1256 0.9435
vn 0.3035 -0.1876 0.9342
vn 0.5346 -0.3304 0.7779
vn 0.9921 0.1256 -0.0000
vn 0.9822 -0.1876 -0.0000
vn 0.9050 -0.3304 -0.2680
vn 0.4713 -0.6617 -0.5831
vn 0.1876 -0.7947 -0.5773
vn -0.0385 -0.6617 -0.7488
vn -0.4089 -0.6617 -0.6284
vn -0.4911 -0.7947 -0.3568
vn -0.7240 -0.6617 -0.1947
vn -0.7240 -0.6617 0.1947
vn -0.4911 -0.7947 0.3568
vn -0.4089 -0.6617 0.6284
vn 0.7002 -0.6617 -0.2680
vn 0.6071 -0.7947 -0.0000
vn 0.3313 -0.9435 -0.0000
vn -0.0385 -0.6617 0.7488
vn 0.1876 -0.7947 0.5773
vn 0.4713 -0.6617 0.5831
vt 0.181819 0.000000
vt 0.909091 0.000000
vt 0.727273 0.000000
vt 0.545455 0.000000
vt 0.363637 0.000000
vt 0.272728 0.157461
vt 1.000000 0.157461
vt 0.090910 0.157461
vt 0.818182 0.157461
vt 0.636364 0.157461
vt 0.454546 0.157461
vt 0.181819 0.314921
vt 0.000000 0.314921
vt 0.909091 0.314921
vt 0.727273 0.314921
vt 0.545455 0.314921
vt 0.363637 0.314921
vt 0.454546 0.472382
vt 0.636364 0.472382
vt 0.818182 0.472382
vt 0.090910 0.472382
vt 0.272728 0.472382
vt 0.954545 0.078731
vt 0.136365 0.078731
vt 0.318182 0.078731
vt 0.227273 0.078731
vt 0.181819 0.157461
vt 0.363637 0.157461
vt 0.500000 0.078731
vt 0.409092 0.078731
vt 0.772727 0.078731
vt 0.863636 0.078731
vt 0.909091 0.157461
vt 0.590909 0.078731
vt 0.681818 0.078731
vt 0.727273 0.157461
vt 0.545455 0.157461
vt 0.318182 0.236191
vt 0.409092 0.236191
vt 0.136365 0.236191
vt 0.227273 0.236191
vt 0.863636 0.236191
vt 0.045455 0.236191
vt 0.954545 0.236191
vt 0.681818 0.236191
vt 0.772727 0.236191
vt 0.500000 0.236191
vt 0.590909 0.236191
vt 0.272728 0.314921
vt 0.090910 0.314921
vt 0.818182 0.314921
vt 0.636364 0.314921
vt 0.454546 0.314921
vt 0.136365 0.393651
vt 0.227273 0.393651
vt 0.409092 0.393651
vt 0.318182 0.393651
vt 0.863636 0.393651
vt 0.045455 0.393651
vt 0.681818 0.393651
vt 0.772727 0.393651
vt 0.500000 0.393651
vt 0.590909 0.393651
s 0
usemtl Emerald
f 1/1/1 14/26/1 13/24/1
f 2/6/2 14/25/2 16/28/2
f 1/2/3 13/23/3 18/32/3
f 1/3/4 18/31/4 20/35/4
f 1/4/5 20/34/5 17/29/5
f 2/6/6 16/28/6 23/38/6
f 3/8/7 15/27/7 25/40/7
f 4/9/8 19/33/8 27/42/8
f 5/10/9 21/36/9 29/45/9
f 6/11/10 22/37/10 31/47/10
f 2/6/11 23/38/11 26/41/11
f 3/8/12 25/40/12 28/43/12
f 4/9/13 27/42/13 30/46/13
f 5/10/14 29/45/14 32/48/14
f 6/11/15 31/47/15 24/39/15
f 7/12/16 33/49/16 38/55/16
f 8/13/17 34/50/17 40/59/17
f 9/15/18 35/51/18 41/61/18
f 10/16/19 36/52/19 42/63/19
f 11/17/20 37/53/20 39/56/20
f 39/56/21 42/62/21 12/18/21
f 39/56/22 37/53/22 42/62/22
f 37/53/23 10/16/23 42/62/23
f 42/63/24 41/60/24 12/19/24
f 42/63/25 36/52/25 41/60/25
f 36/52/26 9/15/26 41/60/26
f 41/61/27 40/58/27 12/20/27
f 41/61/28 35/51/28 40/58/28
f 35/51/29 8/14/29 40/58/29
f 40/59/30 38/54/30 12/21/30
f 40/59/31 34/50/31 38/54/31
f 34/50/32 7/12/32 38/54/32
f 38/55/33 39/57/33 12/22/33
f 38/55/34 33/49/34 39/57/34
f 33/49/35 11/17/35 39/57/35
f 24/39/36 37/53/36 11/17/36
f 24/39/37 31/47/37 37/53/37
f 31/47/38 10/16/38 37/53/38
f 32/48/39 36/52/39 10/16/39
f 32/48/40 29/45/40 36/52/40
f 29/45/41 9/15/41 36/52/41
f 30/46/42 35/51/42 9/15/42
f 30/46/43 27/42/43 35/51/43
f 27/42/44 8/14/44 35/51/44
f 28/43/45 34/50/45 8/13/45
f 28/43/46 25/40/46 34/50/46
f 25/40/47 7/12/47 34/50/47
f 26/41/48 33/49/48 7/12/48
f 26/41/49 23/38/49 33/49/49
f 23/38/50 11/17/50 33/49/50
f 31/47/51 32/48/51 10/16/51
f 31/47/52 22/37/52 32/48/52
f 22/37/53 5/10/53 32/48/53
f 29/45/54 30/46/54 9/15/54
f 29/45/55 21/36/55 30/46/55
f 21/36/56 4/9/56 30/46/56
f 27/42/57 28/44/57 8/14/57
f 27/42/58 19/33/58 28/44/58
f 19/33/59 3/7/59 28/44/59
f 25/40/60 26/41/60 7/12/60
f 25/40/61 15/27/61 26/41/61
f 15/27/62 2/6/62 26/41/62
f 23/38/63 24/39/63 11/17/63
f 23/38/64 16/28/64 24/39/64
f 16/28/65 6/11/65 24/39/65
f 17/29/66 22/37/66 6/11/66
f 17/29/67 20/34/67 22/37/67
f 20/34/68 5/10/68 22/37/68
f 20/35/69 21/36/69 5/10/69
f 20/35/70 18/31/70 21/36/70
f 18/31/71 4/9/71 21/36/71
f 18/32/72 19/33/72 4/9/72
f 18/32/73 13/23/73 19/33/73
f 13/23/74 3/7/74 19/33/74
f 16/28/75 17/30/75 6/11/75
f 16/28/76 14/25/76 17/30/76
f 14/25/77 1/5/77 17/30/77
f 13/24/78 15/27/78 3/8/78
f 13/24/79 14/26/79 15/27/79
f 14/26/80 2/6/80 15/27/80
o Floor
v -10.000000 -0.000004 10.000000
v 10.000000 -0.000004 10.000000
v -10.000000 0.000004 -10.000000
v 10.000000 0.000004 -10.000000
vn -0.0000 1.0000 -0.0000
vt -0.500000 -0.500000
vt 1.500000 -0.500000
vt -0.500000 1.500000
vt 1.500000 1.500000
s 0
usemtl Ground
f 44/65/81 45/66/81 43/64/81
f 44/65/81 46/67/81 45/66/81
o Gold_Cube.001
v 1.236674 0.000000 -5.429633
v 1.236674 1.500001 -5.429633
v 1.986674 0.000001 -6.728671
v 1.986674 1.500001 -6.728670
v 2.535711 0.000000 -4.679633
v 2.535711 1.500000 -4.679633
v 3.285711 0.000001 -5.978671
v 3.285711 1.500001 -5.978671
vn -0.8660 -0.0000 -0.5000
vn 0.5000 -0.0000 -0.8660
vn 0.8660 -0.0000 0.5000
vn -0.5000 -0.0000 0.8660
vn -0.0000 -1.0000 -0.0000
vn -0.0000 1.0000 -0.0000
vt 0.375000 0.000000
vt 0.375000 1.000000
vt 0.125000 0.750000
vt 0.625000 0.000000
vt 0.625000 1.000000
vt 0.875000 0.750000
vt 0.125000 0.500000
vt 0.375000 0.250000
vt 0.625000 0.250000
vt 0.875000 0.500000
vt 0.375000 0.750000
vt 0.625000 0.750000
vt 0.375000 0.500000
vt 0.625000 0.500000
s 0
usemtl Neon
f 48/71/82 49/75/82 47/68/82
f 50/76/83 53/80/83 49/75/83
f 54/81/84 51/78/84 53/80/84
f 52/79/85 47/69/85 51/78/85
f 53/80/86 47/70/86 49/74/86
f 50/77/87 52/79/87 54/81/87
f 48/71/82 50/76/82 49/75/82
f 50/76/83 54/81/83 53/80/83
f 54/81/84 52/79/84 51/78/84
f 52/79/85 48/72/85 47/69/85
f 53/80/86 51/78/86 47/70/86
f 50/77/87 48/73/87 52/79/87
o Gold_Cube.002
v -8.316912 0.000000 5.847010
v -8.316912 4.000000 5.847011
v -7.622319 0.000002 1.907778
v -7.622319 4.000002 1.907779
v -4.377681 0.000000 6.541603
v -4.377681 4.000000 6.541604
v -3.683088 0.000002 2.602371
v -3.683088 4.000002 2.602372
vn -0.9848 -0.0000 -0.1736
vn 0.1736 -0.0000 -0.9848
vn 0.9848 -0.0000 0.1736
vn -0.1736 -0.0000 0.9848
vn -0.0000 -1.0000 -0.0000
vn -0.0000 1.0000 -0.0000
vt 0.375000 0.000000
vt 0.375000 1.000000
vt 0.125000 0.750000
vt 0.625000 0.000000
vt 0.625000 1.000000
vt 0.875000 0.750000
vt 0.125000 0.500000
vt 0.375000 0.250000
vt 0.625000 0.250000
vt 0.875000 0.500000
vt 0.375000 0.750000
vt 0.625000 0.750000
vt 0.375000 0.500000
vt 0.625000 0.500000
s 0
usemtl Gold
f 56/85/88 57/89/88 55/82/88
f 58/90/89 61/94/89 57/89/89
f 62/95/90 59/92/90 61/94/90
f 60/93/91 55/83/91 59/92/91
f 61/94/92 55/84/92 57/88/92
f 58/91/93 60/93/93 62/95/93
f 56/85/88 58/90/88 57/89/88
f 58/90/89 62/95/89 61/94/89
f 62/95/90 60/93/90 59/92/90
f 60/93/91 56/86/91 55/83/91
f 61/94/92 59/92/92 55/84/92
f 58/91/93 56/87/93 60/93/93
o Pillar
v 2.059886 0.000000 -3.324056
v 2.059886 4.000000 -3.324054
v 2.157431 0.000000 -3.314449
v 2.157431 4.000000 -3.314447
v 2.251229 0.000000 -3.285996
v 2.251229 4.000000 -3.285994
v 2.337672 0.000000 -3.239791
v 2.337672 4.000000 -3.239789
v 2.413440 0.000000 -3.177609
v 2.413440 4.000000 -3.177607
v 2.475621 0.000000 -3.101841
v 2.475621 4.000000 -3.101839
v 2.521827 0.000000 -3.015398
v 2.521827 4.000000 -3.015396
v 2.550279 0.000000 -2.921601
v 2.550279 4.000000 -2.921599
v 2.559886 0.000000 -2.824056
v 2.559886 4.000000 -2.824054
v 2.550279 0.000000 -2.726511
v 2.550279 4.000000 -2.726509
v 2.521827 0.000000 -2.632714
v 2.521827 4.000000 -2.632712
v 2.475621 0.000000 -2.546271
v 2.475621 4.000000 -2.546269
v 2.413440 0.000000 -2.470503
v 2.413440 4.000000 -2.470501
v 2.337672 0.000000 -2.408321
v 2.337672 4.000000 -2.408319
v 2.251229 0.000000 -2.362116
v 2.251229 4.000000 -2.362114
v 2.157431 0.000000 -2.333663
v 2.157431 4.000000 -2.333661
v 2.059886 0.000000 -2.324056
v 2.059886 4.000000 -2.324054
v 1.962342 0.000000 -2.333663
v 1.962342 4.000000 -2.333661
v 1.868544 0.000000 -2.362116
v 1.868544 4.000000 -2.362114
v 1.782101 0.000000 -2.408321
v 1.782101 4.000000 -2.408319
v 1.706333 0.000000 -2.470503
v 1.706333 4.000000 -2.470501
v 1.644151 0.000000 -2.546271
v 1.644151 4.000000 -2.546269
v 1.597946 0.000000 -2.632714
v 1.597946 4.000000 -2.632712
v 1.569494 0.000000 -2.726511
v 1.569494 4.000000 -2.726509
v 1.559886 0.000000 -2.824056
v 1.559886 4.000000 -2.824054
v 1.569494 0.000000 -2.921601
v 1.569494 4.000000 -2.921599
v 1.597946 0.000000 -3.015398
v 1.597946 4.000000 -3.015396
v 1.644151 0.000000 -3.101841
v 1.644151 4.000000 -3.101839
v 1.706333 0.000000 -3.177609
v 1.706333 4.000000 -3.177607
v 1.782101 0.000000 -3.239791
v 1.782101 4.000000 -3.239789
v 1.868544 0.000000 -3.285996
v 1.868544 4.000000 -3.285994
v 1.962342 0.000000 -3.314449
v 1.962342 4.000000 -3.314447
vn -0.0000 -0.0000 -1.0000
vn 0.1951 -0.0000 -0.9808
vn 0.3827 -0.0000 -0.9239
vn 0.5556 -0.0000 -0.8315
vn 0.7071 -0.0000 -0.7071
vn 0.8315 -0.0000 -0.5556
vn 0.9239 -0.0000 -0.3827
vn 0.9808 -0.0000 -0.1951
vn 1.0000 -0.0000 -0.0000
vn 0.9808 -0.0000 0.1951
vn 0.9239 -0.0000 0.3827
vn 0.8315 -0.0000 0.5556
vn 0.7071 -0.0000 0.7071
vn 0.5556 -0.0000 0.8315
vn 0.3827 -0.0000 0.9239
vn 0.1951 -0.0000 0.9808
vn -0.0000 -0.0000 1.0000
vn -0.1951 -0.0000 0.9808
vn -0.3827 -0.0000 0.9239
vn -0.5556 -0.0000 0.8315
vn -0.7071 -0.0000 0.7071
vn -0.8315 -0.0000 0.5556
vn -0.9239 -0.0000 0.3827
vn -0.9808 -0.0000 0.1951
vn -1.0000 -0.0000 -0.0000
vn -0.9808 -0.0000 -0.1951
vn -0.9239 -0.0000 -0.3827
vn -0.8315 -0.0000 -0.5556
vn -0.7071 -0.0000 -0.7071
vn -0.5556 -0.0000 -0.8315
vn -0.3827 -0.0000 -0.9239
vn -0.0000 1.0000 -0.0000
vn -0.1951 -0.0000 -0.9808
vn -0.0000 -1.0000 -0.0000
vt 0.004465 0.000000
vt 0.758556 0.362823
vt 0.758549 0.120237
vt 0.004551 1.000000
vt 0.779543 0.000000
vt -0.020538 0.000000
vt 0.760623 0.339203
vt -0.020679 1.000000
vt 0.779464 1.000000
vt 0.760822 0.143839
vt 0.754540 0.000000
vt 0.767257 0.316440
vt 0.754749 1.000000
vt 0.767655 0.166543
vt 0.729538 0.000000
vt 0.778206 0.295409
vt 0.729519 1.000000
vt 0.778786 0.187478
vt 0.704535 0.000000
vt 0.793046 0.276917
vt 0.704290 1.000000
vt 0.793788 0.205839
vt 0.679533 0.000000
vt 0.811210 0.261677
vt 0.679575 1.000000
vt 0.812083 0.220921
vt 0.654530 0.000000
vt 0.831997 0.250272
vt 0.654345 1.000000
vt 0.832970 0.232143
vt 0.629528 0.000000
vt 0.854610 0.243142
vt 0.629630 1.000000
vt 0.855644 0.239075
vt 0.604525 0.000000
vt 0.878179 0.240561
vt 0.604401 1.000000
vt 0.879235 0.241451
vt 0.579523 0.000000
vt 0.901800 0.242628
vt 0.579686 1.000000
vt 0.902836 0.239178
vt 0.554520 0.000000
vt 0.924563 0.249262
vt 0.554456 1.000000
vt 0.925540 0.232345
vt 0.529518 0.000000
vt 0.945594 0.260211
vt 0.529741 1.000000
vt 0.946475 0.221214
vt 0.504515 0.000000
vt 0.964085 0.275051
vt 0.504511 1.000000
vt 0.964836 0.206212
vt 0.479513 0.000000
vt 0.979326 0.293215
vt 0.479282 1.000000
vt 0.979918 0.187917
vt 0.454510 0.000000
vt 0.990730 0.314002
vt 0.454567 1.000000
vt 0.991140 0.167030
vt 0.429507 0.000000
vt 0.997860 0.336615
vt 0.429337 1.000000
vt 0.998073 0.144356
vt 0.404505 0.000000
vt 1.000441 0.360184
vt 0.404622 1.000000
vt 1.000448 0.120765
vt 0.379502 0.000000
vt 0.998375 0.383805
vt 0.379393 1.000000
vt 0.998176 0.097164
vt 0.354500 0.000000
vt 0.991740 0.406568
vt 0.354678 1.000000
vt 0.991342 0.074460
vt 0.329497 0.000000
vt 0.980792 0.427599
vt 0.329448 1.000000
vt 0.980211 0.053525
vt 0.304495 0.000000
vt 0.965951 0.446090
vt 0.304733 1.000000
vt 0.965209 0.035164
vt 0.279492 0.000000
vt 0.947788 0.461331
vt 0.279503 1.000000
vt 0.946914 0.020082
vt 0.254490 0.000000
vt 0.927000 0.472735
vt 0.254274 1.000000
vt 0.926028 0.008859
vt 0.229487 0.000000
vt 0.904387 0.479865
vt 0.229559 1.000000
vt 0.903354 0.001927
vt 0.204485 0.000000
vt 0.880818 0.482446
vt 0.204329 1.000000
vt 0.879763 -0.000448
vt 0.179482 0.000000
vt 0.857198 0.480380
vt 0.179614 1.000000
vt 0.856161 0.001824
vt 0.154480 0.000000
vt 0.834435 0.473745
vt 0.154384 1.000000
vt 0.833457 0.008658
vt 0.129477 0.000000
vt 0.813404 0.462797
vt 0.129670 1.000000
vt 0.812522 0.019789
vt 0.104475 0.000000
vt 0.794912 0.447956
vt 0.104440 1.000000
vt 0.794161 0.034790
vt 0.079472 0.000000
vt 0.779672 0.429793
vt 0.079725 1.000000
vt 0.779079 0.053086
vt 0.054470 0.000000
vt 0.768267 0.409005
vt 0.767857 0.073972
vt 0.054495 1.000000
vt 0.029467 0.000000
vt 0.761137 0.386392
vt 0.760925 0.096646
vt 0.029266 1.000000
s 1
usemtl Pillar
f 64/99/94 65/101/95 63/96/94
f 66/104/95 67/106/96 65/100/95
f 68/108/96 69/110/97 67/106/96
f 70/112/97 71/114/98 69/110/97
f 72/116/98 73/118/99 71/114/98
f 74/120/99 75/122/100 73/118/99
f 76/124/100 77/126/101 75/122/100
f 78/128/101 79/130/102 77/126/101
f 80/132/102 81/134/103 79/130/102
f 82/136/103 83/138/104 81/134/103
f 84/140/104 85/142/105 83/138/104
f 86/144/105 87/146/106 85/142/105
f 88/148/106 89/150/107 87/146/106
f 90/152/107 91/154/108 89/150/107
f 92/156/108 93/158/109 91/154/108
f 94/160/109 95/162/110 93/158/109
f 96/164/110 97/166/111 95/162/110
f 98/168/111 99/170/112 97/166/111
f 100/172/112 101/174/113 99/170/112
f 102/176/113 103/178/114 101/174/113
f 104/180/114 105/182/115 103/178/114
f 106/184/115 107/186/116 105/182/115
f 108/188/116 109/190/117 107/186/116
f 110/192/117 111/194/118 109/190/117
f 112/196/118 113/198/119 111/194/118
f 114/200/119 115/202/120 113/198/119
f 116/204/120 117/206/121 115/202/120
f 118/208/121 119/210/122 117/206/121
f 120/212/122 121/214/123 119/210/122
f 122/216/123 123/218/124 121/214/123
f 100/173/125 84/141/125 68/109/125
f 124/221/124 125/222/126 123/218/124
f 126/225/126 63/96/94 125/222/126
f 93/159/127 109/191/127 125/223/127
f 64/99/94 66/103/95 65/101/95
f 66/104/95 68/108/96 67/106/96
f 68/108/96 70/112/97 69/110/97
f 70/112/97 72/116/98 71/114/98
f 72/116/98 74/120/99 73/118/99
f 74/120/99 76/124/100 75/122/100
f 76/124/100 78/128/101 77/126/101
f 78/128/101 80/132/102 79/130/102
f 80/132/102 82/136/103 81/134/103
f 82/136/103 84/140/104 83/138/104
f 84/140/104 86/144/105 85/142/105
f 86/144/105 88/148/106 87/146/106
f 88/148/106 90/152/107 89/150/107
f 90/152/107 92/156/108 91/154/108
f 92/156/108 94/160/109 93/158/109
f 94/160/109 96/164/110 95/162/110
f 96/164/110 98/168/111 97/166/111
f 98/168/111 100/172/112 99/170/112
f 100/172/112 102/176/113 101/174/113
f 102/176/113 104/180/114 103/178/114
f 104/180/114 106/184/115 105/182/115
f 106/184/115 108/188/116 107/186/116
f 108/188/116 110/192/117 109/190/117
f 110/192/117 112/196/118 111/194/118
f 112/196/118 114/200/119 113/198/119
f 114/200/119 116/204/120 115/202/120
f 116/204/120 118/208/121 117/206/121
f 118/208/121 120/212/122 119/210/122
f 120/212/122 122/216/123 121/214/123
f 122/216/123 124/221/124 123/218/124
f 68/109/125 66/105/125 64/98/125
f 64/98/125 126/224/125 124/220/125
f 124/220/125 122/217/125 120/213/125
f 120/213/125 118/209/125 116/205/125
f 116/205/125 114/201/125 112/197/125
f 112/197/125 110/193/125 108/189/125
f 108/189/125 106/185/125 104/181/125
f 104/181/125 102/177/125 100/173/125
f 100/173/125 98/169/125 96/165/125
f 96/165/125 94/161/125 92/157/125
f 92/157/125 90/153/125 88/149/125
f 88/149/125 86/145/125 84/141/125
f 84/141/125 82/137/125 80/133/125
f 80/133/125 78/129/125 76/125/125
f 76/125/125 74/121/125 72/117/125
f 72/117/125 70/113/125 68/109/125
f 68/109/125 64/98/125 124/220/125
f 124/220/125 120/213/125 116/205/125
f 116/205/125 112/197/125 108/189/125
f 108/189/125 104/181/125 100/173/125
f 100/173/125 96/165/125 92/157/125
f 92/157/125 88/149/125 84/141/125
f 84/141/125 80/133/125 76/125/125
f 76/125/125 72/117/125 68/109/125
f 68/109/125 124/220/125 116/205/125
f 116/205/125 108/189/125 100/173/125
f 100/173/125 92/157/125 84/141/125
f 84/141/125 76/125/125 68/109/125
f 68/109/125 116/205/125 100/173/125
f 124/221/124 126/225/126 125/222/126
f 126/225/126 64/99/94 63/96/94
f 125/223/127 63/97/127 65/102/127
f 65/102/127 67/107/127 69/111/127
f 69/111/127 71/115/127 73/119/127
f 73/119/127 75/123/127 77/127/127
f 77/127/127 79/131/127 81/135/127
f 81/135/127 83/139/127 85/143/127
f 85/143/127 87/147/127 89/151/127
f 89/151/127 91/155/127 93/159/127
f 93/159/127 95/163/127 97/167/127
f 97/167/127 99/171/127 101/175/127
f 101/175/127 103/179/127 105/183/127
f 105/183/127 107/187/127 109/191/127
f 109/191/127 111/195/127 113/199/127
f 113/199/127 115/203/127 117/207/127
f 117/207/127 119/211/127 121/215/127
f 121/215/127 123/219/127 125/223/127
f 125/223/127 65/102/127 69/111/127
f 69/111/127 73/119/127 77/127/127
f 77/127/127 81/135/127 85/143/127
f 85/143/127 89/151/127 93/159/127
f 93/159/127 97/167/127 101/175/127
f 101/175/127 105/183/127 109/191/127
f 109/191/127 113/199/127 117/207/127
f 117/207/127 121/215/127 125/223/127
f 125/223/127 69/111/127 77/127/127
f 77/127/127 85/143/127 93/159/127
f 93/159/127 101/175/127 109/191/127
f 109/191/127 117/207/127 125/223/127
f 125/223/127 77/127/127 93/159/127
o Plane.001
v -2.000000 -0.000001 7.000000
v 2.000000 -0.000001 7.000000
v -2.000000 3.999999 7.000000
v 2.000000 3.999999 7.000000
v -2.000000 -0.000001 7.000000
v 2.000000 -0.000001 7.000000
v -2.000000 3.999999 7.000000
v 2.000000 3.999999 7.000000
vn -0.0000 -0.0000 1.0000
vn -0.0000 -0.0000 -1.0000
vt 0.000000 0.000000
vt 1.000000 0.000000
vt 0.000000 1.000000
vt 1.000000 1.000000
vt 0.000000 0.000000
vt 1.000000 0.000000
vt 0.000000 1.000000
vt 1.000000 1.000000
s 0
usemtl Portal0
f 128/227/128 129/228/128 127/226/128
f 133/232/129 132/231/129 131/230/129
f 128/227/128 130/229/128 129/228/128
f 133/232/129 134/233/129 132/231/129
o Plane.002
v -2.000000 -0.000001 6.900000
v 2.000000 -0.000001 6.900000
v -2.000000 3.999999 6.900001
v 2.000000 3.999999 6.900001
v -2.000000 -0.000001 7.100000
v 2.000000 -0.000001 7.100000
v -2.000000 3.999999 7.100000
v 2.000000 3.999999 7.100000
v -2.100000 -0.000001 6.900000
v 2.100000 -0.000001 6.900000
v -2.100000 4.099999 6.900001
v 2.100000 4.099999 6.900001
v -2.100000 -0.000001 7.100000
v 2.100000 -0.000001 7.100000
v -2.100000 4.099999 7.100000
v 2.100000 4.099999 7.100000
vn -0.0000 -0.0000 1.0000
vn 1.0000 -0.0000 -0.0000
vn -0.0000 -1.0000 -0.0000
vn -1.0000 -0.0000 -0.0000
vn -0.0000 1.0000 -0.0000
vn -0.0000 -0.0000 -1.0000
vt 0.000000 0.000000
vt 0.000000 0.000000
vt 0.000000 0.000000
vt 0.000000 0.000000
vt 0.000000 0.000000
vt 0.000000 0.000000
vt 0.000000 0.000000
vt 0.000000 0.000000
vt 0.000000 0.000000
vt 0.000000 0.000000
vt 0.000000 0.000000
vt 0.000000 0.000000
vt 0.000000 0.000000
vt 0.000000 0.000000
vt 0.000000 0.000000
vt 0.000000 0.000000
s 0
usemtl PortalFrame
f 140/239/130 148/247/130 142/241/130
f 148/247/130 150/249/130 142/241/130
f 142/241/130 150/249/130 141/240/130
f 150/249/130 149/248/130 141/240/130
f 149/248/130 147/246/130 141/240/130
f 141/240/130 147/246/130 139/238/130
f 135/234/131 141/240/131 139/238/131
f 137/236/131 141/240/131 135/234/131
f 141/240/132 137/236/132 142/241/132
f 137/236/132 138/237/132 142/241/132
f 142/241/133 138/237/133 140/239/133
f 138/237/133 136/235/133 140/239/133
f 150/249/131 148/247/131 144/243/131
f 144/243/131 146/245/131 150/249/131
f 150/249/134 146/245/134 149/248/134
f 146/245/134 145/244/134 149/248/134
f 136/235/135 138/237/135 146/245/135
f 144/243/135 136/235/135 146/245/135
f 146/245/135 138/237/135 145/244/135
f 138/237/135 137/236/135 145/244/135
f 145/244/135 137/236/135 143/242/135
f 137/236/135 135/234/135 143/242/135
f 147/246/133 145/244/133 143/242/133
f 149/248/133 145/244/133 147/246/133
f 147/246/132 143/242/132 139/238/132
f 135/234/132 139/238/132 143/242/132
f 144/243/132 140/239/132 136/235/132
f 140/239/132 144/243/132 148/247/132
o Plane.003
v -2.000000 0.000001 -8.100000
v 2.000000 0.000001 -8.100000
v -2.000000 4.000001 -8.099999
v 2.000000 4.000001 -8.099999
v -2.000000 0.000001 -7.900000
v 2.000000 0.000001 -7.900000
v -2.000000 4.000001 -7.900000
v 2.000000 4.000001 -7.900000
v -2.100000 0.000001 -8.100000
v 2.100000 0.000001 -8.100000
v -2.100000 4.100001 -8.099999
v 2.100000 4.100001 -8.099999
v -2.100000 0.000001 -7.900000
v 2.100000 0.000001 -7.900000
v -2.100000 4.100001 -7.900000
v 2.100000 4.100001 -7.900000
vn -0.0000 -0.0000 1.0000
vn 1.0000 -0.0000 -0.0000
vn -0.0000 -1.0000 -0.0000
vn -1.0000 -0.0000 -0.0000
vn -0.0000 1.0000 -0.0000
vn -0.0000 -0.0000 -1.0000
vt 0.000000 0.000000
vt 0.000000 0.000000
vt 0.000000 0.000000
vt 0.000000 0.000000
vt 0.000000 0.000000
vt 0.000000 0.000000
vt 0.000000 0.000000
vt 0.000000 0.000000
vt 0.000000 0.000000
vt 0.000000 0.000000
vt 0.000000 0.000000
vt 0.000000 0.000000
vt 0.000000 0.000000
vt 0.000000 0.000000
vt 0.000000 0.000000
vt 0.000000 0.000000
s 0
usemtl PortalFrame
f 156/255/136 164/263/136 158/257/136
f 164/263/136 166/265/136 158/257/136
f 158/257/136 166/265/136 157/256/136
f 166/265/136 165/264/136 157/256/136
f 165/264/136 163/262/136 157/256/136
f 157/256/136 163/262/136 155/254/136
f 151/250/137 157/256/137 155/254/137
f 153/252/137 157/256/137 151/250/137
f 157/256/138 153/252/138 158/257/138
f 153/252/138 154/253/138 158/257/138
f 158/257/139 154/253/139 156/255/139
f 154/253/139 152/251/139 156/255/139
f 166/265/137 164/263/137 160/259/137
f 160/259/137 162/261/137 166/265/137
f 166/265/140 162/261/140 165/264/140
f 162/261/140 161/260/140 165/264/140
f 152/251/141 154/253/141 162/261/141
f 160/259/141 152/251/141 162/261/141
f 162/261/141 154/253/141 161/260/141
f 154/253/141 153/252/141 161/260/141
f 161/260/141 153/252/141 159/258/141
f 153/252/141 151/250/141 159/258/141
f 163/262/139 161/260/139 159/258/139
f 165/264/139 161/260/139 163/262/139
f 163/262/138 159/258/138 155/254/138
f 151/250/138 155/254/138 159/258/138
f 160/259/138 156/255/138 152/251/138
f 156/255/138 160/259/138 164/263/138
o Plane.004
v -2.000000 0.000001 -8.000000
v 2.000000 0.000001 -8.000000
v -2.000000 4.000001 -8.000000
v 2.000000 4.000001 -8.000000
v -2.000000 0.000001 -8.000000
v 2.000000 0.000001 -8.000000
v -2.000000 4.000001 -8.000000
v 2.000000 4.000001 -8.000000
vn -0.0000 -0.0000 1.0000
vn -0.0000 -0.0000 -1.0000
vt 0.000000 0.000000
vt 1.000000 0.000000
vt 0.000000 1.000000
vt 1.000000 1.000000
vt 0.000000 0.000000
vt 1.000000 0.000000
vt 0.000000 1.000000
vt 1.000000 1.000000
s 0
usemtl Portal1
f 168/267/142 169/268/142 167/266/142
f 173/272/143 172/271/143 171/270/143
f 168/267/142 170/269/142 169/268/142
f 173/272/143 174/273/143 172/271/143
